<?xml version="1.0"?><svg xmlns="http://www.w3.org/2000/svg"  viewBox="0 0 50 50" width="50px" height="50px">    <path d="M 27.658203 4 L 21.708984 4.0097656 C 20.666984 4.0157656 19.573062 4.604 19.039062 5.5 L 0.53320312 36.431641 C -0.073796875 37.445641 -0.028609375 38.725359 0.65039062 39.693359 L 4.1738281 44.720703 C 4.7358281 45.522703 5.6518594 46 6.6308594 46 L 43.591797 46 C 44.685797 46 45.693703 45.405266 46.220703 44.447266 L 49.519531 38.453125 C 50.049531 37.490125 50.010969 36.314672 49.417969 35.388672 L 30.191406 5.3808594 C 29.638406 4.5168594 28.693062 4 27.664062 4 L 27.658203 4 z M 21.576172 6 L 27.689453 6 C 28.030453 6 28.323813 6.1739375 28.507812 6.4609375 L 47.734375 36.466797 C 47.931375 36.776797 47.943578 37.167281 47.767578 37.488281 L 44.46875 43.482422 C 44.29275 43.802422 43.955797 44 43.591797 44 L 6.6308594 44 C 6.3048594 44 5.9975469 43.841219 5.8105469 43.574219 L 2.2871094 38.544922 C 2.0611094 38.221922 2.0450469 37.795031 2.2480469 37.457031 L 20.757812 6.5234375 C 20.936812 6.2234375 21.227172 6.002 21.576172 6 z M 27.119141 8 L 23.431641 8.0234375 L 37.460938 30.470703 C 37.652938 30.778703 37.662328 31.166375 37.486328 31.484375 C 37.310328 31.802375 36.975328 32 36.611328 32 L 21.175781 32 L 18.769531 36 L 45.060547 36 L 27.119141 8 z M 21.642578 8.9375 L 4.2988281 37.927734 L 6.5625 41.162109 L 21.130859 17.011719 C 21.310859 16.715719 21.629609 16.532344 21.974609 16.527344 C 22.320609 16.529344 22.643078 16.697281 22.830078 16.988281 L 31.146484 30 L 34.806641 30 L 21.642578 8.9375 z M 22.013672 19.423828 L 8.3945312 42 L 43.001953 42 L 45.203125 38 L 17.001953 38 C 16.641953 38 16.308859 37.806187 16.130859 37.492188 C 15.953859 37.178187 15.958531 36.793375 16.144531 36.484375 L 24.277344 22.964844 L 22.013672 19.423828 z"/></svg>